<svg width="23" height="26" viewBox="0 0 23 26" fill="none" xmlns="http://www.w3.org/2000/svg">
<path d="M0.831055 10.0938H21.5342C21.8564 10.0938 22.1201 10.3574 22.1201 10.6797V23.375C22.1201 24.6689 21.0703 25.7188 19.7764 25.7188H2.58887C1.29492 25.7188 0.245117 24.6689 0.245117 23.375V10.6797C0.245117 10.3574 0.508789 10.0938 0.831055 10.0938ZM22.1201 7.94531V6.1875C22.1201 4.89355 21.0703 3.84375 19.7764 3.84375H17.4326V1.30469C17.4326 0.982422 17.1689 0.71875 16.8467 0.71875H14.8936C14.5713 0.71875 14.3076 0.982422 14.3076 1.30469V3.84375H8.05762V1.30469C8.05762 0.982422 7.79395 0.71875 7.47168 0.71875H5.51855C5.19629 0.71875 4.93262 0.982422 4.93262 1.30469V3.84375H2.58887C1.29492 3.84375 0.245117 4.89355 0.245117 6.1875V7.94531C0.245117 8.26758 0.508789 8.53125 0.831055 8.53125H21.5342C21.8564 8.53125 22.1201 8.26758 22.1201 7.94531Z" fill="#495057"/>
</svg>
